<?xml version="1.0" standalone="no"?><!DOCTYPE svg PUBLIC "-//W3C//DTD SVG 1.1//EN" "http://www.w3.org/Graphics/SVG/1.1/DTD/svg11.dtd"><svg t="1560391907416" class="icon" style="" viewBox="0 0 1024 1024" version="1.1" xmlns="http://www.w3.org/2000/svg" p-id="9876" xmlns:xlink="http://www.w3.org/1999/xlink" width="200" height="200"><defs><style type="text/css"></style></defs><path d="M534.686998 873.79994l0.025 0.076-0.112-0.291c0.02 0.066 0.056 0.138 0.087 0.215l-0.159-0.369a246.404983 246.404983 0 0 1-9.082999-23.049998c-0.328-0.983-0.67-1.982-0.988-2.98-0.277-0.835-0.533-1.654-0.804-2.504-0.148-0.491-0.307-0.988-0.456-1.495-0.302-0.988-0.609-1.986-0.906-3.004999l-0.573-2.023c-0.256-0.84-0.487-1.7-0.727-2.56a282.269981 282.269981 0 0 1-1.439-5.53c-0.2-0.808-0.4-1.612-0.578999-2.421-0.015-0.056-0.025-0.118-0.046-0.174a209.714986 209.714986 0 0 1-1.362-6.056999c-0.128-0.614-0.266-1.219-0.384-1.843l-0.527-2.606-0.445-2.37c-0.174-1.025-0.38-2.07-0.533-3.092999-0.128-0.733-0.256-1.44-0.363-2.176-0.108-0.671-0.226-1.332-0.323-2.002a124.231992 124.231992 0 0 1-0.343-2.355 92.210994 92.210994 0 0 1-0.44-3.195 235.335984 235.335984 0 0 1-0.794-6.676999c-0.082-0.727-0.148-1.454-0.22-2.176a210.579986 210.579986 0 0 1-0.425-5.033 211.593986 211.593986 0 0 1-0.348-5.145c-0.026-0.461-0.036-0.907-0.067-1.356999a240.669984 240.669984 0 0 1-0.338-13.143h-31.937998V640.689956H256.456017V576.809961H480.060002v-95.830994H256.456017V417.099971H384.230009L256.456017 257.392982h95.835994L480.067002 417.099971h63.876996l127.773991-159.707989h95.820994L639.769991 417.099971h127.769992v63.876996H543.943998v95.835994h54.624996a219.301985 219.301985 0 0 1 6.436-5.458 257.873982 257.873982 0 0 1 8.836999-6.978l2.263-1.669999c0.799-0.604 1.603-1.177 2.411-1.76 1.48-1.06 2.975-2.1 4.474999-3.13 0.456-0.322 0.917-0.629 1.383-0.946a242.756983 242.756983 0 0 1 10.004-6.441c0.405-0.256 0.81-0.492 1.209-0.743 1.367-0.819 2.739-1.628 4.109999-2.431999 0.4-0.225 0.805-0.47 1.22-0.696a244.213983 244.213983 0 0 1 10.582999-5.73c0.424-0.225 0.86-0.44 1.29-0.655a273.391981 273.391981 0 0 1 4.254-2.094c0.44-0.215 0.881-0.43 1.321-0.63A237.086984 237.086984 0 0 1 670.709989 531.999964a235.509984 235.509984 0 0 1 5.785-2.294 236.204984 236.204984 0 0 1 11.739999-4.163c0.262-0.102 0.533-0.174 0.789-0.271a256.941982 256.941982 0 0 1 25.359998-6.778999c1.924-0.394 3.824-0.783 5.75-1.147 0.957-0.184 1.92-0.348 2.877-0.527a301.905979 301.905979 0 0 1 6.347999-1.05 276.494981 276.494981 0 0 1 11.202999-1.418l2.954-0.297c0.82-0.087 1.628-0.148 2.453-0.215a195.859987 195.859987 0 0 1 6.492-0.46c0.717-0.047 1.449-0.093 2.169999-0.129a359.349975 359.349975 0 0 1 6.227-0.235l0.63-0.01a297.39498 297.39498 0 0 1 12.829999 0.01c2.14 0.061 4.26 0.138 6.37 0.25 0.47 0.026 0.92 0.062 1.392 0.093l2.329999 0.128a231.382984 231.382984 0 0 1 9.989 0.85c2.98 0.312 5.924 0.665 8.856999 1.08 1.06 0.159 2.11 0.307 3.164 0.471 0.789 0.113 1.577 0.236 2.366 0.369 0.691 0.107 1.336 0.215 2.007 0.338 0.957 0.148 1.905 0.322 2.871999 0.496 0.784 0.159 1.577 0.297 2.355 0.44 0.994 0.2 1.982 0.39 2.98 0.605 0.686 0.133 1.378 0.271 2.048 0.435a247.904983 247.904983 0 0 1 10.316999 2.410999c1.03 0.256 2.033 0.533 3.052 0.804 2.032 0.548 4.044 1.122 6.057 1.72 1.013 0.303 2.012 0.6 3.009999 0.917a247.275983 247.275983 0 0 1 13.127999 4.5c1.085 0.42 2.191 0.83 3.277 1.255 0.87 0.333 1.735 0.67 2.59 1.014 1.332 0.527 2.637 1.075 3.948 1.618a256.905982 256.905982 0 0 1 134.005991 130.420991 508.640965 508.640965 0 0 0 22.644998-150.29199c0-282.372981-228.709984-511.083965-511.067965-511.083965C229.647019 1.853 0.937035 230.559984 0.937035 512.936965 0.932035 795.289946 229.637019 1023.99993 512 1023.99993a508.405965 508.405965 0 0 0 150.29799-22.639998A256.972982 256.972982 0 0 1 534.686998 873.79994zM959.189969 768.465947c0-105.758993-85.892994-191.651987-191.656986-191.651986s-191.656987 85.887994-191.656987 191.651986c0 105.763993 85.892994 191.656987 191.656987 191.656987s191.656987-85.892994 191.656986-191.656987zM767.533983 896.239939v-95.836994h-127.769992v-63.881995h127.769992v-95.829994l127.769991 127.768991-127.769991 127.779992z" p-id="9877"></path></svg>
