<?xml version="1.0" standalone="no"?><!DOCTYPE svg PUBLIC "-//W3C//DTD SVG 1.1//EN" "http://www.w3.org/Graphics/SVG/1.1/DTD/svg11.dtd"><svg t="1560390388314" class="icon" style="" viewBox="0 0 1024 1024" version="1.1" xmlns="http://www.w3.org/2000/svg" p-id="8249" xmlns:xlink="http://www.w3.org/1999/xlink" width="200" height="200"><defs><style type="text/css"></style></defs><path d="M132.23569889 842.44422838c-67.13127723 0-121.78146862-54.65019139-121.78146861-121.78146862V126.05413642c0-67.13127723 54.65019139-121.78146862 121.78146861-121.78146862h594.60862336c67.13127723 0 121.78146862 54.65019139 121.7814686 121.78146862 0 21.69043072-17.69163623 39.38206696-39.38206696 39.38206696s-39.38206696-17.69163623-39.38206698-39.38206696c0-23.75041578-19.26691892-43.01733468-43.01733466-43.01733469H132.23569889c-23.75041578 0-43.01733468 19.26691892-43.0173347 43.01733469v594.60862334c0 23.75041578 19.26691892 43.01733468 43.0173347 43.0173347 21.69043072 0 39.38206696 17.69163623 39.38206695 39.38206696s-17.69163623 39.38206696-39.38206695 39.38206696z" p-id="8250"></path><path d="M290.2486691 989.67257103c-37.07973073 0-67.13127723-30.17272208-67.13127722-67.13127723V285.03651136c0-37.07973073 30.17272208-67.13127723 67.13127722-67.13127723h637.50478244c37.07973073 0 67.13127723 30.17272208 67.13127724 67.13127723v637.50478244c0 37.07973073-30.17272208 67.13127723-67.13127724 67.13127723H290.2486691z m267.19217741-222.84191122c0 33.44446302 27.14333231 60.58779533 60.58779531 60.58779532s60.58779533-27.14333231 60.58779534-60.58779532v-102.39337411H781.00981127c33.44446302 0 60.58779533-27.14333231 60.58779532-60.58779532s-27.14333231-60.58779533-60.58779532-60.58779533h-102.39337411v-102.39337409c0-33.44446302-27.14333231-60.58779533-60.58779534-60.58779534s-60.58779533 27.14333231-60.58779531 60.58779534v102.39337409H455.0474724c-33.44446302 0-60.58779533 27.14333231-60.58779535 60.58779533s27.14333231 60.58779533 60.58779535 60.58779532h102.39337411v102.39337411z" p-id="8251"></path><path d="M927.75345154 239.1109625c25.32569844 0 45.92554886 20.5998504 45.92554886 45.92554886v637.50478244c0 25.32569844-20.5998504 45.92554886-45.92554886 45.92554887H290.2486691c-25.32569844 0-45.92554886-20.5998504-45.92554887-45.92554887V285.03651136c0-25.32569844 20.5998504-45.92554886 45.92554887-45.92554886h637.50478244M536.23511812 522.05596668h-81.18764572c-45.07731973 0-81.7935237 36.71620397-81.79352369 81.7935237s36.71620397 81.7935237 81.79352369 81.79352369h81.18764572v81.18764574c0 45.07731973 36.71620397 81.7935237 81.7935237 81.7935237s81.7935237-36.71620397 81.7935237-81.7935237v-81.18764574h81.18764575c45.07731973 0 81.7935237-36.71620397 81.79352369-81.79352369s-36.71620397-81.7935237-81.79352369-81.7935237h-81.18764575v-81.18764572c0-45.07731973-36.71620397-81.7935237-81.7935237-81.79352371S536.23511812 395.79100122 536.23511812 440.86832096v81.18764572m391.51833342-325.35646091H290.2486691c-48.83376304 0-88.33700559 39.50324255-88.33700559 88.33700559v637.50478244c0 48.83376304 39.50324255 88.33700559 88.33700559 88.33700559h637.50478244c48.83376304 0 88.33700559-39.50324255 88.33700559-88.33700559V285.03651136c0-48.83376304-39.50324255-88.33700559-88.33700559-88.33700559zM455.0474724 643.23155733c-21.69043072 0-39.38206696-17.69163623-39.38206697-39.38206695s17.69163623-39.38206696 39.38206697-39.38206697h123.59910247v-123.59910245c0-21.69043072 17.69163623-39.38206696 39.38206695-39.38206699s39.38206696 17.69163623 39.38206696 39.38206699v123.59910245h123.59910249c21.69043072 0 39.38206696 17.69163623 39.38206696 39.38206697s-17.69163623 39.38206696-39.38206696 39.38206695H657.41070878v123.59910248c0 21.69043072-17.69163623 39.38206696-39.38206696 39.38206697S578.64657487 788.52109054 578.64657487 766.83065981v-123.59910248H455.0474724z" p-id="8252"></path></svg>